<?xml version="1.0" encoding="UTF-8"?>
<!DOCTYPE svg PUBLIC "-//W3C//DTD SVG 1.1//EN" "http://www.w3.org/Graphics/SVG/1.1/DTD/svg11.dtd">
<!-- Creator: CorelDRAW 2021 (64-Bit) -->
<svg xmlns="http://www.w3.org/2000/svg" xml:space="preserve" width="8.2649in" height="8.12767in" version="1.1" style="shape-rendering:geometricPrecision; text-rendering:geometricPrecision; image-rendering:optimizeQuality; fill-rule:evenodd; clip-rule:evenodd"
viewBox="0 0 6746.98 6634.96"
 xmlns:xlink="http://www.w3.org/1999/xlink"
 xmlns:xodm="http://www.corel.com/coreldraw/odm/2003">
 <defs>
  <style type="text/css">
   <![CDATA[
    .fil0 {fill:#00ED64;fill-rule:nonzero}
   ]]>
  </style>
 </defs>
 <g id="Layer_x0020_1">
  <metadata id="CorelCorpID_0Corel-Layer"/>
  <path class="fil0" d="M6746.98 11.31c-409.69,1.18 -818.2,2.85 -1226.78,4.53 -755.04,3.09 -1510.37,6.19 -2257.38,6.19 -198.93,0 -385.96,53.48 -547.42,146.76 -167.4,96.71 -307.34,236.21 -404.58,403.25 -145.84,250.52 -248.27,1143.71 -285.44,1467.9 -2.84,24.82 -5.32,46.32 -7.39,63.93 -22.62,192.22 -126.69,307.23 -271.72,373.17 -144.14,65.54 -328.72,82.32 -513.67,78.33l-0.49 -0.02c-19.31,-2.05 -38.73,-3.62 -58.26,-4.65 -19.06,-1.02 -38.44,-1.54 -58.12,-1.54 -4.71,0 -7.49,0.05 -10.27,0.09 -2.09,0.03 -4.18,0.15 -6.26,0.01 -8.48,0.21 -16.94,0.46 -25.41,0.74 -6.16,0.26 -12.32,0.52 -18.48,0.84 -8.79,0.54 -17.57,1.12 -26.35,1.75 -7.27,0.58 -13.65,1.17 -19.75,1.76l-6.47 0.6 -12.96 1.42c-4.93,0.56 -9.26,1.08 -12.87,1.55l-16.25 2.24 -9.55 1.4 -17.6 2.83 -8.03 1.38c-20.58,3.73 -40.74,7.88 -61.12,12.58l-8.07 1.94 -16.85 4.22 -9.75 2.6c-9.08,2.53 -18.05,5.06 -27.11,7.7l-12.1 3.7 -15.84 5.1 -8.4 2.78c-27.62,9.53 -54.06,19.65 -80.99,30.97 -7.7,3.36 -15.38,6.76 -23.06,10.18l-10.12 4.68c-8.01,3.81 -15.89,7.6 -23.86,11.53l-11.17 5.64 -14.79 7.74 -7.5 4.02c-7.39,4.07 -14.74,8.15 -22.07,12.31 -12.44,7.21 -24.69,14.49 -36.92,22.05l-14.77 9.38c-6.98,4.57 -13.93,9.19 -20.88,13.8l-10.26 7.05 -10.16 7.14 -10.09 7.28c-3.18,2.3 -6.51,4.77 -10.01,7.4 -6.65,5.04 -13.28,10.12 -19.89,15.22l-13.55 10.79c-17.67,14.44 -34.69,29.05 -51.61,44.36 -6.07,5.61 -12.12,11.24 -18.13,16.92l-8.96 8.65c-6.3,6.22 -12.45,12.41 -18.66,18.71l-7.54 7.8c-5.71,6.06 -11.4,12.14 -17.07,18.24l-11.66 12.98c-15.02,17.14 -29.26,34.28 -43.46,52.09 -5.09,6.59 -10.15,13.2 -15.17,19.83 -2.26,3 -4.72,6.32 -7.43,10.02 -7.31,10.12 -14.39,20.22 -21.48,30.49 -4.65,6.98 -9.29,13.96 -13.89,20.97l-9.38 14.78c-5.64,9.12 -12.22,19.12 -17.2,28.49 -1.26,2.11 -2.59,4.4 -4.98,8.57l-3.8 6.69 -8.41 15.21 -4.27 7.96 -7.48 14.22 -5.63 11.17 -5.5 11.18 -6.72 14.17c-4.86,10.55 -9.55,21.07 -14.2,31.72 -7.97,18.92 -15.38,37.63 -22.55,56.88 -1.85,5.09 -3.64,10.19 -5.42,15.3l-3.05 8.77 -3.09 9.33 -4.79 14.85 -3.69 12.07c-1.17,3.91 -2.36,7.95 -3.54,12.13l-4.49 16.17 -2.28 8.55 -4.32 17.2c-2.03,8.48 -3.99,16.92 -5.89,25.43 -1.68,7.84 -3.31,15.68 -4.93,23.53l-0.08 0.88c-6.71,34.4 -11.83,69.25 -15.23,104.45 -3.34,34.56 -5.06,69.72 -5.06,105.39l0 349.12c0,18.08 0.44,35.85 1.3,53.29 0.88,18.03 2.21,35.92 3.93,53.63l0.02 0.6c-4.51,295.96 -6.78,593.17 -7.92,844.84 -1.12,246.83 -1.14,456.13 -1.14,571.8 0,302.66 123.82,577.81 323.3,777.29 199.48,199.48 474.63,323.3 777.29,323.3 302.66,0 577.81,-123.82 777.29,-323.3 199.48,-199.48 323.3,-474.63 323.3,-777.29 0,-229.72 95.52,-443.22 238.02,-632.04 184.35,-244.27 447.43,-447.26 683.72,-590.49 445.71,-270.17 1163.98,-289.45 1889.04,-308.92 230.08,-6.17 460.86,-12.37 684.11,-26.64 842.29,-53.84 881.94,-459.83 921.64,-866.5 17.38,-178.01 34.83,-356.12 117.93,-505.59l0 25.67c-73.68,143.77 -90.22,312.42 -106.68,480.98 -40.17,411.48 -80.29,822.28 -932.18,876.73 -222.93,14.25 -454.09,20.46 -684.55,26.64 -723.55,19.43 -1440.31,38.67 -1883.45,307.28 -235.25,142.59 -497.13,344.63 -680.53,587.65 -141.12,186.99 -235.72,398.23 -235.72,625.22 0,305.78 -125.09,583.77 -326.63,785.3 -201.53,201.53 -479.52,326.63 -785.3,326.63 -305.79,0 -583.78,-125.09 -785.31,-326.63 -201.53,-201.53 -326.63,-479.52 -326.63,-785.3 0,-112.13 0.02,-315.25 1.18,-571.85 1.14,-251.66 3.42,-548.78 7.92,-844.61 -1.74,-17.89 -3.07,-35.85 -3.95,-53.88 -0.88,-18.05 -1.34,-36 -1.34,-53.82l0 -349.12c0,-35.76 1.75,-71.28 5.15,-106.46 3.45,-35.69 8.58,-70.8 15.29,-105.23l0.08 -0.81c4.71,-22.69 9.65,-44.74 15.39,-67.21l2.33 -8.68 4.49 -16.28c1.13,-3.99 2.33,-8.1 3.59,-12.28l3.73 -12.2 4.83 -14.98 3.12 -9.44 3.1 -8.89c1.79,-5.16 3.6,-10.32 5.46,-15.42 7.24,-19.48 14.69,-38.32 22.77,-57.46 3.41,-7.85 6.88,-15.64 10.37,-23.45 1,-2.25 2.4,-5.24 4,-8.65 4.08,-8.59 8.13,-17.06 12.32,-25.6 5.76,-11.33 11.59,-22.49 17.58,-33.7 4.08,-7.4 8.18,-14.77 12.33,-22.13 4.29,-7.36 8.58,-14.69 12.94,-22.01 6.23,-10.2 12.52,-20.31 18.97,-30.37l4.38 -6.71 9.64 -14.44 5.62 -8.21c5.34,-7.61 10.64,-15.1 16.08,-22.64l7.48 -10.1 9.78 -12.85 5.56 -7.17c19.73,-24.87 39.76,-48.44 61.25,-71.77l11.64 -12.38 7.63 -7.89c6.28,-6.36 12.52,-12.63 18.88,-18.92l9.05 -8.74 11.94 -11.2 6.37 -5.89c17.16,-15.42 34.25,-30.23 52.15,-44.8l13.68 -10.89 6.67 -5.17 13.38 -10.16 10.12 -7.49c3.33,-2.45 6.73,-4.9 10.2,-7.37l10.3 -7.24 10.35 -7.1c7.01,-4.7 14.04,-9.36 21.1,-13.98 7.15,-4.55 14.31,-9.07 21.49,-13.55 7.31,-4.44 14.64,-8.82 22.01,-13.18l8.68 -5.01c7.42,-4.19 14.85,-8.31 22.3,-12.43l7.62 -4.07 14.87 -7.8 11.3 -5.73c8.07,-3.96 16.01,-7.76 24.13,-11.62l10.21 -4.72c7.76,-3.49 15.52,-6.92 23.32,-10.3 19.11,-8.04 38.03,-15.53 57.47,-22.75 8.09,-2.9 16.2,-5.72 24.32,-8.53l8.53 -2.83 15.97 -5.15 12.23 -3.74 12.29 -3.6 15.08 -4.15 9.89 -2.65c8.39,-2.12 16.77,-4.22 25.18,-6.25 14.54,-3.31 28.99,-6.44 43.62,-9.34l18.13 -3.37c8.62,-1.47 17.25,-2.86 25.89,-4.26l9.69 -1.4c9.83,-1.34 19.53,-2.63 29.39,-3.83l13.1 -1.42 6.56 -0.6c7.09,-0.69 13.94,-1.33 19.93,-1.8l17.97 -1.24c14.98,-0.9 29.91,-1.52 44.92,-1.9l0.05 -0.8 9.86 0.67 14.85 -0.21c19.5,0 39.08,0.54 58.7,1.58 19.74,1.05 39.33,2.63 58.73,4.68 183.36,3.93 366.14,-12.65 508.46,-77.36 141.51,-64.34 243.06,-176.57 265.12,-364.14 2.07,-17.61 4.54,-39.11 7.39,-63.93 37.25,-324.81 139.87,-1219.72 286.9,-1472.28 98.24,-168.76 239.61,-309.68 408.7,-407.37 163.16,-94.27 352.13,-148.31 553.08,-148.31 757.95,0 1507.78,-3.08 2257.33,-6.15 409.48,-1.68 818.88,-3.36 1226.82,-4.54l0 11.31z"/>
 </g>
</svg>
