<?xml version="1.0" encoding="UTF-8"?>
<!DOCTYPE svg PUBLIC "-//W3C//DTD SVG 1.1//EN" "http://www.w3.org/Graphics/SVG/1.1/DTD/svg11.dtd">
<!-- Creator: CorelDRAW 2021 (64-Bit) -->
<svg xmlns="http://www.w3.org/2000/svg" xml:space="preserve" width="10.8853in" height="8.12969in" version="1.1" style="shape-rendering:geometricPrecision; text-rendering:geometricPrecision; image-rendering:optimizeQuality; fill-rule:evenodd; clip-rule:evenodd"
viewBox="0 0 61453.51 45896.67"
 xmlns:xlink="http://www.w3.org/1999/xlink"
 xmlns:xodm="http://www.corel.com/coreldraw/odm/2003">
 <defs>
  <style type="text/css">
   <![CDATA[
    .str0 {stroke:#00ED64;stroke-width:78.42;stroke-miterlimit:2.61313}
    .fil0 {fill:none}
   ]]>
  </style>
 </defs>
 <g id="Layer_x0020_1">
  <metadata id="CorelCorpID_0Corel-Layer"/>
  <path class="fil0 str0" d="M7689.77 15340.36c-4207.81,0 -7650.56,-3442.75 -7650.56,-7650.56l0 -0.02c0,-4207.81 3442.75,-7650.56 7650.56,-7650.56 10388.42,0 20795.11,85.26 31199.04,85.26 2816.07,0 5289.49,1541.99 6617.58,3823.31 1090.17,1872.66 1828.43,8894.54 2030.14,10608.82 309.02,2626.59 2843.88,3142.82 5391.87,3087.84 265.96,-28.27 535.82,-43.12 808.98,-43.12l0.02 0c34.98,0 69.75,0.87 104.64,1.33l68.84 -4.65 -59.59 4.16c15.56,0.22 31.05,0.8 46.59,1.2 24.8,0.47 49.52,1.2 74.26,1.93 37.81,1.2 75.55,2.67 113.24,4.33 24.03,1.07 48.01,2.18 71.97,3.47 39.61,2.18 79.13,4.85 118.58,7.58 21.54,1.51 43.1,2.89 64.59,4.56 45.85,3.62 91.55,7.87 137.21,12.29 15,1.47 30.07,2.64 45.03,4.18 60.15,6.25 120.16,13.02 179.88,20.72 15.31,1.98 30.52,4.27 45.81,6.31 44.52,5.98 88.97,12.09 133.25,18.8 22.18,3.38 44.23,7.07 66.35,10.62 37.32,6 74.61,12.11 111.76,18.65 24.03,4.22 47.99,8.71 71.95,13.16 35.23,6.56 70.37,13.31 105.42,20.34 24.36,4.89 48.7,9.91 72.99,15.03 35.12,7.42 70.13,15.16 105.09,23.03 23.18,5.22 46.32,10.42 69.41,15.87 37.67,8.89 75.17,18.25 112.64,27.67 20.18,5.07 40.43,10 60.57,15.25 45.36,11.85 90.51,24.29 135.56,36.9 12.05,3.38 24.18,6.51 36.21,9.96 56.48,16.18 112.73,32.94 168.66,50.48 17.14,5.38 34.16,11.07 51.28,16.54 39.21,12.51 78.37,25.14 117.29,38.27 21.18,7.16 42.25,14.63 63.35,21.96 34.72,12.07 69.39,24.25 103.89,36.79 22.09,8.05 44.1,16.25 66.1,24.49 33.7,12.62 67.3,25.45 100.8,38.5 21.49,8.4 42.94,16.85 64.35,25.43 34.03,13.65 67.88,27.65 101.66,41.74 20.94,8.74 41.87,17.43 62.72,26.36 34.96,15 69.7,30.41 104.42,45.88 18.65,8.31 37.41,16.47 55.97,24.94 46.99,21.43 93.71,43.39 140.18,65.72 5.93,2.85 11.91,5.53 17.83,8.4 52.3,25.32 104.29,51.17 155.9,77.75 16.71,8.6 33.27,17.47 49.92,26.16 35.12,18.34 70.21,36.74 105.02,55.61 19.27,10.42 38.36,21.12 57.54,31.72 32.05,17.74 64.03,35.58 95.84,53.74 19.96,11.4 39.81,22.98 59.66,34.56 30.61,17.87 61.08,35.96 91.44,54.21 20.05,12.07 40.05,24.18 59.99,36.45 30.45,18.74 60.7,37.74 90.88,56.88 19.09,12.07 38.19,24.14 57.14,36.38 32.05,20.74 63.81,41.87 95.55,63.03 16.54,11.02 33.16,21.87 49.59,33.03 47.68,32.41 95.09,65.24 142.01,98.66l0.04 0.02c46.96,33.5 93.55,67.48 139.65,102.04 15.49,11.62 30.83,23.45 46.25,35.16 30.78,23.36 61.5,46.79 91.91,70.59 17.43,13.62 34.67,27.47 51.99,41.25 28.16,22.43 56.21,44.96 84.04,67.77 17.96,14.71 35.81,29.56 53.63,44.43 27.03,22.56 53.88,45.34 80.62,68.24 17.43,14.94 34.83,29.92 52.1,45.01 27.07,23.65 53.86,47.59 80.62,71.57 16.67,14.96 33.41,29.87 49.94,44.99 29.21,26.69 58.08,53.79 86.88,80.93 13.02,12.25 26.18,24.34 39.12,36.7 41.74,39.9 83.08,80.17 123.89,121 5.13,5.13 10.11,10.4 15.23,15.54 35.5,35.67 70.7,71.61 105.47,108 13.96,14.63 27.69,29.45 41.56,44.16 25.78,27.38 51.52,54.83 76.93,82.59 15.27,16.69 30.34,33.54 45.45,50.37 23.85,26.54 47.56,53.23 71.08,80.08 15.09,17.25 30.09,34.61 45.05,52.01 23.03,26.85 45.83,53.88 68.55,81.02 14.83,17.71 29.63,35.45 44.28,53.3 23.05,28.12 45.79,56.5 68.48,84.95 13.45,16.85 26.96,33.61 40.25,50.59 25.63,32.72 50.81,65.79 75.93,98.89 9.85,12.98 19.87,25.83 29.63,38.87 34.56,46.23 68.7,92.77 102.18,139.83 7,9.85 13.76,19.83 20.72,29.67 26.25,37.19 52.34,74.5 77.95,112.2 12.07,17.8 23.92,35.76 35.85,53.66 20.4,30.54 40.72,61.17 60.68,92 12.38,19.11 24.54,38.36 36.76,57.61 19.03,29.98 37.9,60.08 56.54,90.35 12.47,20.25 24.85,40.61 37.14,60.99 17.83,29.54 35.36,59.28 52.81,89.08 12.14,20.76 24.27,41.5 36.21,62.37 17.78,31.07 35.18,62.37 52.57,93.71 10.8,19.49 21.72,38.92 32.34,58.52 20,36.87 39.52,74.08 58.95,111.31 7.51,14.36 15.2,28.61 22.6,43.03 26.45,51.57 52.41,103.42 77.64,155.68 6.27,13 12.29,26.16 18.51,39.19 18.76,39.27 37.39,78.62 55.46,118.25 9.18,20.12 18.05,40.39 27.07,60.59 14.94,33.47 29.78,67.01 44.25,100.73 9.2,21.45 18.18,43.01 27.21,64.57 13.71,32.83 27.25,65.75 40.54,98.8 8.89,22.07 17.65,44.16 26.32,66.32 13.02,33.32 25.74,66.77 38.32,100.31 8.18,21.76 16.36,43.52 24.32,65.37 12.85,35.25 25.25,70.73 37.61,106.22 7.09,20.38 14.34,40.67 21.25,61.15 14.56,43.1 28.56,86.44 42.41,129.87 4.07,12.71 8.36,25.36 12.34,38.12 17.43,55.81 34.25,111.84 50.32,168.23 5,17.58 9.71,35.27 14.63,52.88 11.05,39.56 21.98,79.15 32.36,118.96 5.76,22.03 11.2,44.14 16.76,66.24 8.94,35.43 17.71,70.88 26.16,106.51 5.73,24.25 11.25,48.59 16.76,72.95 7.67,33.9 15.11,67.88 22.34,101.93 5.27,24.85 10.45,49.77 15.47,74.7 2.69,13.36 5.67,26.63 8.29,40.03l0.11 3.51c92.22,472.58 141.07,960.19 141.07,1458.71l0 2414.39c0,250.63 -12.6,498.48 -36.45,743.1 62.3,4093.37 62.79,8222.03 62.79,9797.52 0,4207.81 -3442.75,7650.56 -7650.56,7650.56l-0.02 0c-4207.81,0 -7650.56,-3442.75 -7650.56,-7650.56 0,-3626.85 -3467.47,-6670.64 -6355.53,-8421.2 -4050.67,-2455.31 -11381.61,-1906.09 -17777.28,-2314.97 -12171.02,-777.98 -246,-12130.36 -14290.57,-12130.36z"/>
 </g>
</svg>
