<?xml version="1.0" encoding="UTF-8"?>
<!DOCTYPE svg PUBLIC "-//W3C//DTD SVG 1.1//EN" "http://www.w3.org/Graphics/SVG/1.1/DTD/svg11.dtd">
<!-- Creator: CorelDRAW 2021 (64-Bit) -->
<svg xmlns="http://www.w3.org/2000/svg" xml:space="preserve" width="15.1483in" height="8.85901in" version="1.1" style="shape-rendering:geometricPrecision; text-rendering:geometricPrecision; image-rendering:optimizeQuality; fill-rule:evenodd; clip-rule:evenodd"
viewBox="0 0 15153.92 8862.27"
 xmlns:xlink="http://www.w3.org/1999/xlink"
 xmlns:xodm="http://www.corel.com/coreldraw/odm/2003">
 <defs>
  <style type="text/css">
   <![CDATA[
    .str0 {stroke:#00ED64;stroke-width:13.89;stroke-miterlimit:2.61313}
    .fil0 {fill:none}
   ]]>
  </style>
 </defs>
 <g id="Layer_x0020_1">
  <metadata id="CorelCorpID_0Corel-Layer"/>
  <path class="fil0 str0" d="M5627.24 2718.24c-745.61,0 -1355.64,-610.04 -1355.64,-1355.64l0 -0c0,-745.61 610.04,-1355.64 1355.64,-1355.64 1840.78,0 3684.8,15.11 5528.33,15.11 498.99,0 937.27,273.23 1172.6,677.47 193.17,331.83 323.99,1576.07 359.73,1879.83 54.76,465.42 503.92,556.89 955.41,547.15 47.13,-5.01 94.94,-7.64 143.35,-7.64l0 0c6.2,0 12.36,0.15 18.54,0.24l12.2 -0.82 -10.56 0.74c2.76,0.04 5.5,0.14 8.26,0.21 4.4,0.08 8.77,0.21 13.16,0.34 6.7,0.21 13.39,0.47 20.07,0.77 4.26,0.19 8.51,0.39 12.75,0.61 7.02,0.39 14.02,0.86 21.01,1.34 3.82,0.27 7.64,0.51 11.45,0.81 8.13,0.64 16.22,1.39 24.31,2.18 2.66,0.26 5.33,0.47 7.98,0.74 10.66,1.11 21.29,2.31 31.87,3.67 2.71,0.35 5.41,0.76 8.12,1.12 7.89,1.06 15.77,2.14 23.61,3.33 3.93,0.6 7.84,1.25 11.76,1.88 6.61,1.06 13.22,2.15 19.8,3.3 4.26,0.75 8.5,1.54 12.75,2.33 6.24,1.16 12.47,2.36 18.68,3.6 4.32,0.87 8.63,1.76 12.93,2.66 6.22,1.32 12.43,2.69 18.62,4.08 4.11,0.93 8.21,1.85 12.3,2.81 6.68,1.58 13.32,3.23 19.96,4.9 3.58,0.9 7.16,1.77 10.73,2.7 8.04,2.1 16.04,4.3 24.02,6.54 2.13,0.6 4.29,1.15 6.42,1.76 10.01,2.87 19.98,5.84 29.89,8.94 3.04,0.95 6.05,1.96 9.09,2.93 6.95,2.22 13.89,4.45 20.78,6.78 3.75,1.27 7.49,2.59 11.22,3.89 6.15,2.14 12.3,4.3 18.41,6.52 3.91,1.43 7.81,2.88 11.71,4.34 5.97,2.24 11.93,4.51 17.86,6.82 3.81,1.49 7.61,2.99 11.4,4.51 6.03,2.42 12.03,4.9 18.01,7.4 3.71,1.55 7.42,3.09 11.11,4.67 6.2,2.66 12.35,5.39 18.5,8.13 3.3,1.47 6.63,2.92 9.92,4.42 8.33,3.8 16.6,7.69 24.84,11.65 1.05,0.5 2.11,0.98 3.16,1.49 9.27,4.49 18.48,9.07 27.62,13.78 2.96,1.52 5.9,3.1 8.85,4.64 6.22,3.25 12.44,6.51 18.61,9.85 3.41,1.85 6.8,3.74 10.2,5.62 5.68,3.14 11.35,6.31 16.98,9.52 3.54,2.02 7.05,4.07 10.57,6.12 5.42,3.17 10.82,6.37 16.2,9.61 3.55,2.14 7.1,4.29 10.63,6.46 5.4,3.32 10.76,6.69 16.1,10.08 3.38,2.14 6.77,4.28 10.13,6.45 5.68,3.67 11.31,7.42 16.93,11.17 2.93,1.95 5.88,3.88 8.79,5.85 8.45,5.74 16.85,11.56 25.16,17.48l0.01 0c8.32,5.94 16.58,11.96 24.75,18.08 2.75,2.06 5.46,4.16 8.2,6.23 5.45,4.14 10.9,8.29 16.29,12.51 3.09,2.41 6.14,4.87 9.21,7.31 4.99,3.97 9.96,7.97 14.89,12.01 3.18,2.61 6.34,5.24 9.5,7.87 4.79,4 9.55,8.03 14.28,12.09 3.09,2.65 6.17,5.3 9.23,7.98 4.8,4.19 9.54,8.43 14.28,12.68 2.95,2.65 5.92,5.29 8.85,7.97 5.18,4.73 10.29,9.53 15.4,14.34 2.31,2.17 4.64,4.31 6.93,6.5 7.4,7.07 14.72,14.21 21.95,21.44 0.91,0.91 1.79,1.84 2.7,2.75 6.29,6.32 12.53,12.69 18.69,19.14 2.47,2.59 4.91,5.22 7.36,7.83 4.57,4.85 9.13,9.72 13.63,14.64 2.71,2.96 5.38,5.94 8.05,8.92 4.23,4.7 8.43,9.43 12.6,14.19 2.67,3.06 5.33,6.13 7.98,9.22 4.08,4.76 8.12,9.55 12.15,14.36 2.63,3.14 5.25,6.28 7.85,9.44 4.08,4.98 8.11,10.01 12.13,15.05 2.38,2.99 4.78,5.95 7.13,8.96 4.54,5.8 9,11.66 13.45,17.52 1.74,2.3 3.52,4.58 5.25,6.89 6.12,8.19 12.17,16.44 18.11,24.78 1.24,1.74 2.44,3.51 3.67,5.26 4.65,6.59 9.28,13.2 13.81,19.88 2.14,3.15 4.24,6.34 6.35,9.51 3.62,5.41 7.22,10.84 10.75,16.3 2.19,3.39 4.35,6.8 6.51,10.21 3.37,5.31 6.72,10.65 10.02,16.01 2.21,3.59 4.4,7.2 6.58,10.81 3.16,5.23 6.27,10.5 9.36,15.79 2.15,3.68 4.3,7.35 6.42,11.05 3.15,5.51 6.23,11.05 9.31,16.6 1.91,3.45 3.85,6.9 5.73,10.37 3.54,6.53 7,13.13 10.44,19.72 1.33,2.54 2.69,5.07 4.01,7.62 4.69,9.14 9.29,18.33 13.76,27.58 1.11,2.3 2.18,4.64 3.28,6.94 3.32,6.96 6.62,13.93 9.83,20.95 1.63,3.56 3.2,7.16 4.8,10.74 2.65,5.93 5.28,11.87 7.84,17.85 1.63,3.8 3.22,7.62 4.82,11.44 2.43,5.82 4.83,11.65 7.18,17.51 1.58,3.91 3.13,7.83 4.66,11.75 2.31,5.9 4.56,11.83 6.79,17.77 1.45,3.86 2.9,7.71 4.31,11.58 2.28,6.25 4.47,12.53 6.66,18.82 1.26,3.61 2.54,7.21 3.77,10.83 2.58,7.64 5.06,15.32 7.51,23.01 0.72,2.25 1.48,4.49 2.19,6.75 3.09,9.89 6.07,19.82 8.92,29.81 0.89,3.12 1.72,6.25 2.59,9.37 1.96,7.01 3.9,14.02 5.73,21.08 1.02,3.9 1.98,7.82 2.97,11.74 1.58,6.28 3.14,12.56 4.64,18.87 1.02,4.3 1.99,8.61 2.97,12.93 1.36,6.01 2.68,12.03 3.96,18.06 0.93,4.4 1.85,8.82 2.74,13.24 0.48,2.37 1,4.72 1.47,7.09l0.02 0.62c16.34,83.74 25,170.14 25,258.48l0 427.82c0,44.41 -2.23,88.33 -6.46,131.67 11.04,725.33 11.13,1456.91 11.13,1736.08 0,745.61 -610.04,1355.64 -1355.64,1355.64l-0 0c-745.61,0 -1355.64,-610.04 -1355.64,-1355.64 0,-642.66 -614.42,-1182.01 -1126.17,-1492.2 -171.63,-104.04 -376.57,-177.57 -604.46,-230.32 -1.74,3.13 -3.51,6.24 -5.28,9.35 -2.11,3.7 -4.27,7.37 -6.42,11.05 -3.09,5.28 -6.2,10.55 -9.36,15.79 -2.18,3.61 -4.37,7.22 -6.58,10.81 -3.3,5.36 -6.65,10.7 -10.02,16.01 -2.17,3.41 -4.32,6.82 -6.51,10.21 -3.54,5.46 -7.14,10.89 -10.75,16.3 -2.11,3.17 -4.21,6.35 -6.35,9.51 -4.54,6.68 -9.16,13.29 -13.81,19.88 -1.23,1.74 -2.43,3.51 -3.67,5.26 -5.93,8.34 -11.98,16.58 -18.11,24.78 -1.73,2.31 -3.51,4.59 -5.25,6.89 -4.45,5.86 -8.91,11.72 -13.45,17.52 -2.36,3.01 -4.75,5.98 -7.13,8.96 -4.02,5.04 -8.05,10.07 -12.13,15.05 -2.6,3.16 -5.22,6.31 -7.85,9.44 -4.03,4.81 -8.07,9.6 -12.15,14.36 -2.65,3.08 -5.31,6.16 -7.98,9.22 -4.17,4.76 -8.37,9.49 -12.6,14.19 -2.68,2.98 -5.35,5.97 -8.05,8.92 -4.5,4.92 -9.06,9.78 -13.63,14.64 -2.46,2.61 -4.89,5.23 -7.36,7.83 -6.16,6.45 -12.4,12.82 -18.69,19.14 -0.91,0.91 -1.79,1.84 -2.7,2.75 -7.23,7.23 -14.56,14.37 -21.95,21.44 -2.29,2.19 -4.62,4.33 -6.93,6.5 -5.1,4.81 -10.22,9.61 -15.4,14.34 -2.93,2.68 -5.9,5.32 -8.85,7.97 -4.74,4.25 -9.49,8.49 -14.28,12.68 -3.06,2.67 -6.14,5.33 -9.23,7.98 -4.74,4.06 -9.5,8.09 -14.28,12.09 -3.16,2.63 -6.32,5.27 -9.5,7.87 -4.93,4.04 -9.9,8.03 -14.89,12.01 -3.07,2.44 -6.12,4.9 -9.21,7.31 -5.39,4.22 -10.83,8.37 -16.29,12.51 -2.73,2.08 -5.45,4.17 -8.2,6.23 -8.17,6.12 -16.42,12.15 -24.75,18.08l-0.01 0c-8.31,5.92 -16.71,11.74 -25.16,17.48 -2.91,1.98 -5.86,3.9 -8.79,5.85 -5.62,3.75 -11.25,7.49 -16.93,11.17 -3.36,2.17 -6.74,4.31 -10.13,6.45 -5.35,3.39 -10.71,6.76 -16.1,10.08 -3.53,2.17 -7.08,4.32 -10.63,6.46 -5.38,3.23 -10.78,6.44 -16.2,9.61 -3.52,2.05 -7.03,4.1 -10.57,6.12 -5.64,3.22 -11.3,6.38 -16.98,9.52 -3.4,1.88 -6.78,3.77 -10.2,5.62 -6.17,3.34 -12.39,6.6 -18.61,9.85 -2.95,1.54 -5.88,3.11 -8.85,4.64 -9.15,4.71 -18.36,9.29 -27.62,13.78 -1.05,0.51 -2.11,0.98 -3.16,1.49 -8.24,3.96 -16.51,7.85 -24.84,11.65 -3.29,1.5 -6.61,2.95 -9.92,4.42 -6.15,2.74 -12.31,5.47 -18.5,8.13 -3.69,1.58 -7.4,3.12 -11.11,4.67 -5.99,2.5 -11.98,4.98 -18.01,7.4 -3.79,1.52 -7.59,3.02 -11.4,4.51 -5.94,2.31 -11.89,4.58 -17.86,6.82 -3.9,1.46 -7.8,2.91 -11.71,4.34 -6.11,2.22 -12.26,4.38 -18.41,6.52 -3.74,1.3 -7.47,2.62 -11.22,3.89 -6.9,2.33 -13.84,4.56 -20.78,6.78 -3.03,0.97 -6.05,1.98 -9.09,2.93 -9.91,3.11 -19.88,6.08 -29.89,8.94 -2.13,0.61 -4.28,1.17 -6.42,1.76 -7.98,2.23 -15.98,4.44 -24.02,6.54 -3.57,0.93 -7.16,1.8 -10.73,2.7 -6.64,1.67 -13.28,3.33 -19.96,4.9 -4.09,0.96 -8.19,1.89 -12.3,2.81 -6.2,1.39 -12.4,2.76 -18.62,4.08 -4.3,0.91 -8.62,1.8 -12.93,2.66 -6.21,1.24 -12.44,2.44 -18.68,3.6 -4.25,0.79 -8.49,1.58 -12.75,2.33 -6.58,1.16 -13.19,2.24 -19.8,3.3 -3.92,0.63 -7.83,1.28 -11.76,1.88 -7.85,1.19 -15.72,2.27 -23.61,3.33 -2.71,0.36 -5.4,0.77 -8.12,1.12 -10.58,1.36 -21.22,2.56 -31.87,3.67 -2.65,0.27 -5.32,0.48 -7.98,0.74 -8.09,0.78 -16.19,1.54 -24.31,2.18 -3.81,0.3 -7.63,0.54 -11.45,0.81 -6.99,0.48 -13.99,0.96 -21.01,1.34 -4.25,0.23 -8.5,0.43 -12.75,0.61 -6.68,0.3 -13.37,0.56 -20.07,0.77 -4.38,0.13 -8.76,0.26 -13.16,0.34 -2.75,0.07 -5.5,0.17 -8.26,0.21l10.56 0.74 -12.2 -0.82c-6.18,0.08 -12.34,0.24 -18.54,0.24l-0 0c-48.4,0 -96.22,-2.63 -143.35,-7.64 -451.49,-9.74 -900.66,81.73 -955.41,547.15 -35.74,303.76 -166.56,1548.01 -359.73,1879.83 -235.33,404.24 -673.61,677.47 -1172.6,677.47 -1843.53,0 -3687.55,15.11 -5528.33,15.11 -745.61,0 -1355.64,-610.04 -1355.64,-1355.64l0 -0c0,-745.61 610.04,-1355.64 1355.64,-1355.64 2488.63,0 375.58,-2011.59 2532.22,-2149.44 1111.5,-71.06 2382.33,21.12 3107.94,-385.76 -61.79,-469.82 -237.38,-890.58 -1375.52,-890.58z"/>
 </g>
</svg>
